<?xml version="1.0" encoding="UTF-8" standalone="no"?>
<!-- Created with Inkscape (http://www.inkscape.org/) -->

<svg
   xmlns:dc="http://purl.org/dc/elements/1.1/"
   xmlns:cc="http://creativecommons.org/ns#"
   xmlns:rdf="http://www.w3.org/1999/02/22-rdf-syntax-ns#"
   xmlns:svg="http://www.w3.org/2000/svg"
   xmlns="http://www.w3.org/2000/svg"
   xmlns:sodipodi="http://sodipodi.sourceforge.net/DTD/sodipodi-0.dtd"
   xmlns:inkscape="http://www.inkscape.org/namespaces/inkscape"
   height="236.32463mm"
   width="533.87183mm"
   viewBox="0 0 1891.6718 837.37072"
   id="svg4210"
   version="1.1"
   inkscape:version="0.91 r13725"
   sodipodi:docname="fondo3.svg">
  <defs
     id="defs4216" />
  <sodipodi:namedview
     pagecolor="#ffffff"
     bordercolor="#666666"
     borderopacity="1"
     objecttolerance="10"
     gridtolerance="10"
     guidetolerance="10"
     inkscape:pageopacity="0"
     inkscape:pageshadow="2"
     inkscape:window-width="1360"
     inkscape:window-height="704"
     id="namedview4214"
     showgrid="false"
     fit-margin-top="0"
     fit-margin-left="0"
     fit-margin-right="0"
     fit-margin-bottom="0"
     inkscape:zoom="0.44851478"
     inkscape:cx="889.77215"
     inkscape:cy="381.54693"
     inkscape:window-x="0"
     inkscape:window-y="27"
     inkscape:window-maximized="1"
     inkscape:current-layer="svg4210" />
  <metadata
     id="metadata4212">
    <rdf:RDF>
      <cc:Work
         rdf:about="">
        <dc:format>image/svg+xml</dc:format>
        <dc:type
           rdf:resource="http://purl.org/dc/dcmitype/StillImage" />
        <dc:title></dc:title>
      </cc:Work>
    </rdf:RDF>
  </metadata>
  <rect
     inkscape:export-ydpi="90"
     inkscape:export-xdpi="90"
     y="0"
     x="0"
     height="837.37073"
     width="1891.6719"
     id="rect4199"
     style="opacity:1;fill:#292757;fill-opacity:1;stroke:none;stroke-width:0;stroke-miterlimit:4;stroke-dasharray:none;stroke-opacity:1" />
  <path
     style="opacity:0;fill:none;fill-rule:evenodd;stroke:#ffffff;stroke-width:1px;stroke-linecap:butt;stroke-linejoin:miter;stroke-opacity:1"
     d="M 295.47342,-59.456155 -191.68109,427.69835 -24.566601,594.81284 653.35068,-83.104432 844.25846,27.116224 165.41141,705.96327 282.861,823.41286 1156.2707,-49.996844 1277.6652,71.397645 582.40585,766.65699 716.41275,900.66389 1298.1604,318.91628 630.87981,-66.338331 l -767.38159,0 L 1107.2498,651.74194 885.11648,873.8752 -423.54456,118.31939 -287.30506,-17.920115 935.09776,687.83448 1131.9404,801.4816 1250.2675,596.53292 73.829518,-82.683882"
     id="path4340"
     inkscape:connector-curvature="0" />
  <path
     style="opacity:0.73000004;fill:none;fill-rule:evenodd;stroke:#aa1f56;stroke-width:3.7;stroke-linecap:butt;stroke-linejoin:miter;stroke-miterlimit:4;stroke-dasharray:3.7,11.1;stroke-dashoffset:0;stroke-opacity:1"
     d="M 9.7459076,252.60592 1257.3724,10.16184 1661.7538,819.31891 1884.3205,452.62226 1577.116,4.100738 473.68744,819.31891 9.7459076,373.82794 175.88713,19.253492 1182.1387,822.34946 1887.4553,173.81158 100.65336,816.28838 3.4764275,582.93595 1439.1872,22.284044 906.28157,831.44112 718.19717,22.284044 345.16308,819.31891 Z"
     id="path4439"
     inkscape:connector-curvature="0" />
</svg>
