<?xml version="1.0" encoding="UTF-8" standalone="no"?>
<!-- Created with Inkscape (http://www.inkscape.org/) -->

<svg
   xmlns:dc="http://purl.org/dc/elements/1.1/"
   xmlns:cc="http://creativecommons.org/ns#"
   xmlns:rdf="http://www.w3.org/1999/02/22-rdf-syntax-ns#"
   xmlns:svg="http://www.w3.org/2000/svg"
   xmlns="http://www.w3.org/2000/svg"
   xmlns:sodipodi="http://sodipodi.sourceforge.net/DTD/sodipodi-0.dtd"
   xmlns:inkscape="http://www.inkscape.org/namespaces/inkscape"
   height="123.69512mm"
   width="101.43384mm"
   viewBox="0 0 359.41124 438.2898"
   id="svg3927"
   version="1.1"
   inkscape:version="0.91 r13725"
   sodipodi:docname="logo.svg">
  <defs
     id="defs3933">
    <clipPath
       clipPathUnits="userSpaceOnUse"
       id="clipPath336">
      <path
         d="m 298.736,198.237 18.95,-41.109 2.557,2.806 -6.154,13.235 11.785,12.932 13.827,-4.818 2.558,2.806 -42.764,14.981 -0.759,-0.833 z m 7.554,-8.09 c -0.653,1.398 -1.696,3.071 -2.461,4.169 l 0,0 c 1.12,-0.619 2.883,-1.503 4.419,-2.019 l 0,0 14.17,-4.971 -9.871,-10.828 -6.257,13.649 z"
         id="path338"
         inkscape:connector-curvature="0" />
    </clipPath>
    <linearGradient
       x1="0"
       y1="0"
       x2="1"
       y2="0"
       gradientUnits="userSpaceOnUse"
       gradientTransform="matrix(43.523525,0,0,-43.523525,298.73596,178.09909)"
       spreadMethod="pad"
       id="linearGradient344">
      <stop
         style="stop-opacity:1;stop-color:#a92157"
         offset="0"
         id="stop346" />
      <stop
         style="stop-opacity:1;stop-color:#a92157"
         offset="0.930132"
         id="stop348" />
      <stop
         style="stop-opacity:1;stop-color:#b31e56"
         offset="0.993409"
         id="stop350" />
      <stop
         style="stop-opacity:1;stop-color:#b31e56"
         offset="1"
         id="stop352" />
    </linearGradient>
    <clipPath
       clipPathUnits="userSpaceOnUse"
       id="clipPath312">
      <path
         d="m 268.727,173.51 c -4.288,-2.539 -6.996,-4.832 -10.161,-6.706 l 0,0 c -2.704,-1.603 -5.066,-2.036 -7.281,-1.556 l 0,0 -0.656,-2.732 c 2.496,-1.072 5.021,-0.68 7.345,0.283 l 0,0 19.074,-32.199 c 0,0 2.548,0.819 12.958,6.986 l 0,0 c 10.87,6.437 13.114,18.244 7.068,28.45 l 0,0 c -3.989,6.735 -10.373,10.656 -17.391,10.655 l 0,0 c -3.565,0 -7.295,-1.012 -10.956,-3.181 m -7.579,-8.969 c 2.776,1.714 5.514,3.956 9.241,6.163 l 0,0 c 8.981,5.32 18.333,2.449 23.622,-6.481 l 0,0 c 5.32,-8.981 3.314,-18.511 -5.668,-23.832 l 0,0 c -4.389,-2.599 -7.51,-4.31 -9.693,-5.396 l 0,0 -17.502,29.546 z"
         id="path314"
         inkscape:connector-curvature="0" />
    </clipPath>
    <linearGradient
       x1="0"
       y1="0"
       x2="1"
       y2="0"
       gradientUnits="userSpaceOnUse"
       gradientTransform="matrix(49.735394,0,0,-49.735394,250.62932,153.64546)"
       spreadMethod="pad"
       id="linearGradient320">
      <stop
         style="stop-opacity:1;stop-color:#a92157"
         offset="0"
         id="stop322" />
      <stop
         style="stop-opacity:1;stop-color:#a92157"
         offset="0.930132"
         id="stop324" />
      <stop
         style="stop-opacity:1;stop-color:#b31e56"
         offset="0.993409"
         id="stop326" />
      <stop
         style="stop-opacity:1;stop-color:#b31e56"
         offset="1"
         id="stop328" />
    </linearGradient>
    <clipPath
       clipPathUnits="userSpaceOnUse"
       id="clipPath288">
      <path
         d="m 232.434,159.884 -7.849,-44.582 3.7,0.848 2.482,14.384 17.055,3.913 8.619,-11.839 3.7,0.849 -26.609,36.68 -1.098,-0.253 z m 1.599,-10.952 c 0.26,1.52 0.357,3.49 0.353,4.828 l 0,0 c 0.567,-1.148 1.514,-2.879 2.48,-4.178 l 0,0 8.813,-12.159 -14.281,-3.274 2.635,14.783 z"
         id="path290"
         inkscape:connector-curvature="0" />
    </clipPath>
    <linearGradient
       x1="0"
       y1="0"
       x2="1"
       y2="0"
       gradientUnits="userSpaceOnUse"
       gradientTransform="matrix(35.556068,0,0,-35.556068,224.58493,137.71924)"
       spreadMethod="pad"
       id="linearGradient296">
      <stop
         style="stop-opacity:1;stop-color:#a92157"
         offset="0"
         id="stop298" />
      <stop
         style="stop-opacity:1;stop-color:#a92157"
         offset="0.930132"
         id="stop300" />
      <stop
         style="stop-opacity:1;stop-color:#b31e56"
         offset="0.993409"
         id="stop302" />
      <stop
         style="stop-opacity:1;stop-color:#b31e56"
         offset="1"
         id="stop304" />
    </linearGradient>
    <clipPath
       clipPathUnits="userSpaceOnUse"
       id="clipPath264">
      <path
         d="m 181.264,156.332 8.369,-33.52 c 1.002,-4.025 3.601,-8.183 8.755,-8.42 l 0,0 c 0.889,-0.041 2.08,0.023 3.098,0.213 l 0,0 14.969,39.983 -3.331,1.162 -14.353,-38.229 c -3.127,0.442 -4.808,2.597 -5.601,6.019 l 0,0 -8.368,33.519 -3.538,-0.727 z"
         id="path266"
         inkscape:connector-curvature="0" />
    </clipPath>
    <linearGradient
       x1="0"
       y1="0"
       x2="1"
       y2="0"
       gradientUnits="userSpaceOnUse"
       gradientTransform="matrix(35.190445,0,0,-35.190445,181.26456,135.71979)"
       spreadMethod="pad"
       id="linearGradient272">
      <stop
         style="stop-opacity:1;stop-color:#a92157"
         offset="0"
         id="stop274" />
      <stop
         style="stop-opacity:1;stop-color:#a92157"
         offset="0.930132"
         id="stop276" />
      <stop
         style="stop-opacity:1;stop-color:#b31e56"
         offset="0.993409"
         id="stop278" />
      <stop
         style="stop-opacity:1;stop-color:#b31e56"
         offset="1"
         id="stop280" />
    </linearGradient>
    <clipPath
       clipPathUnits="userSpaceOnUse"
       id="clipPath240">
      <path
         d="m 147.361,168.091 c 0.829,-2.587 2.782,-4.236 5.036,-5.358 l 0,0 -11.792,-35.527 3.434,-1.139 5.55,16.721 5.405,-1.794 c 5.123,-1.701 6.759,-5.056 7.01,-9.765 l 0,0 0.615,-11.329 3.715,-1.234 -1.03,13.844 c -0.267,3.151 -1.02,5.589 -3.124,7.536 l 0,0 c 4.784,-0.087 8.682,2.432 10.382,7.554 l 0,0 c 2.131,6.42 -0.972,12.699 -7.671,14.924 l 0,0 c -4.731,1.569 -5.593,1.23 -9.084,2.388 l 0,0 c -2.984,0.991 -4.861,2.49 -5.953,4.477 l 0,0 -2.493,-1.298 z m 11.082,-24.804 -7.826,2.598 5.177,15.595 c 2.495,-0.765 3.17,-0.428 7.9,-1.997 l 0,0 c 4.953,-1.646 7.117,-5.863 5.491,-10.761 l 0,0 c -1.293,-3.891 -4.238,-5.952 -7.678,-5.952 l 0,0 c -0.989,0 -2.02,0.171 -3.064,0.517"
         id="path242"
         inkscape:connector-curvature="0" />
    </clipPath>
    <linearGradient
       x1="0"
       y1="0"
       x2="1"
       y2="0"
       gradientUnits="userSpaceOnUse"
       gradientTransform="matrix(32.622269,0,0,-32.622269,140.60524,144.02771)"
       spreadMethod="pad"
       id="linearGradient248">
      <stop
         style="stop-opacity:1;stop-color:#a92157"
         offset="0"
         id="stop250" />
      <stop
         style="stop-opacity:1;stop-color:#a92157"
         offset="0.930132"
         id="stop252" />
      <stop
         style="stop-opacity:1;stop-color:#b31e56"
         offset="0.993409"
         id="stop254" />
      <stop
         style="stop-opacity:1;stop-color:#b31e56"
         offset="1"
         id="stop256" />
    </linearGradient>
    <clipPath
       clipPathUnits="userSpaceOnUse"
       id="clipPath216">
      <path
         d="m 94.352,154.402 3.145,-2.127 12.21,7.994 14.492,-9.803 -2.78,-14.374 3.145,-2.127 8.674,44.47 -0.934,0.631 -37.952,-24.664 z m 18.428,7.87 12.607,8.156 c 1.289,0.846 2.794,2.119 3.77,3.034 l 0,0 c -0.452,-1.198 -1.074,-3.069 -1.363,-4.663 l 0,0 -2.88,-14.735 -12.134,8.208 z"
         id="path218"
         inkscape:connector-curvature="0" />
    </clipPath>
    <linearGradient
       x1="0"
       y1="0"
       x2="1"
       y2="0"
       gradientUnits="userSpaceOnUse"
       gradientTransform="matrix(38.886444,0,0,-38.886444,94.351761,156.51526)"
       spreadMethod="pad"
       id="linearGradient224">
      <stop
         style="stop-opacity:1;stop-color:#a92157"
         offset="0"
         id="stop226" />
      <stop
         style="stop-opacity:1;stop-color:#a92157"
         offset="0.930132"
         id="stop228" />
      <stop
         style="stop-opacity:1;stop-color:#b31e56"
         offset="0.993409"
         id="stop230" />
      <stop
         style="stop-opacity:1;stop-color:#b31e56"
         offset="1"
         id="stop232" />
    </linearGradient>
    <clipPath
       clipPathUnits="userSpaceOnUse"
       id="clipPath192">
      <path
         d="m 98.871,204.599 -28.065,-24.759 2.393,-2.714 27.978,24.681 c 1.77,-1.918 2.523,-1.965 5.82,-5.701 l 0,0 c 3.571,-4.047 2.984,-9.389 -1.242,-13.117 l 0,0 c -4.313,-3.806 -9.644,-3.683 -13.214,0.364 l 0,0 c -1.766,2.002 -3.286,3.905 -3.286,3.905 l 0,0 -2.446,-2.16 c 0,0 1.44,-1.813 3.403,-4.036 l 0,0 c 4.905,-5.559 12.342,-5.563 17.858,-0.698 l 0,0 c 5.471,4.826 6.397,12.206 1.491,17.766 l 0,0 c -3.296,3.737 -4.212,3.879 -6.645,6.636 l 0,0 c -2.079,2.357 -2.948,4.597 -2.89,6.863 l 0,0 -2.806,0.134 c -0.588,-2.654 0.271,-5.061 1.651,-7.164"
         id="path194"
         inkscape:connector-curvature="0" />
    </clipPath>
    <linearGradient
       x1="0"
       y1="0"
       x2="1"
       y2="0"
       gradientUnits="userSpaceOnUse"
       gradientTransform="matrix(41.95401,0,0,-41.95401,70.805244,194.28116)"
       spreadMethod="pad"
       id="linearGradient200">
      <stop
         style="stop-opacity:1;stop-color:#a92157"
         offset="0"
         id="stop202" />
      <stop
         style="stop-opacity:1;stop-color:#a92157"
         offset="0.930132"
         id="stop204" />
      <stop
         style="stop-opacity:1;stop-color:#b31e56"
         offset="0.993409"
         id="stop206" />
      <stop
         style="stop-opacity:1;stop-color:#b31e56"
         offset="1"
         id="stop208" />
    </linearGradient>
    <clipPath
       clipPathUnits="userSpaceOnUse"
       id="clipPath170">
      <path
         d="m 282.871,329.367 c 0,-3.534 2.865,-6.398 6.399,-6.398 l 0,0 c 3.534,0 6.399,2.864 6.399,6.398 l 0,0 c 0,3.534 -2.865,6.399 -6.399,6.399 l 0,0 c -3.534,0 -6.399,-2.865 -6.399,-6.399 m 3.671,0 c 0,1.507 1.221,2.728 2.728,2.728 l 0,0 c 1.506,0 2.728,-1.221 2.728,-2.728 l 0,0 c 0,-1.507 -1.222,-2.728 -2.728,-2.728 l 0,0 c -1.507,0 -2.728,1.221 -2.728,2.728"
         id="path172"
         inkscape:connector-curvature="0" />
    </clipPath>
    <linearGradient
       x1="0"
       y1="0"
       x2="1"
       y2="0"
       gradientUnits="userSpaceOnUse"
       gradientTransform="matrix(12.797687,0,0,-12.797687,282.871,329.36707)"
       spreadMethod="pad"
       id="linearGradient178">
      <stop
         style="stop-opacity:1;stop-color:#1e2857"
         offset="0"
         id="stop180" />
      <stop
         style="stop-opacity:1;stop-color:#b31e56"
         offset="0.993409"
         id="stop182" />
      <stop
         style="stop-opacity:1;stop-color:#b31e56"
         offset="1"
         id="stop184" />
    </linearGradient>
    <clipPath
       clipPathUnits="userSpaceOnUse"
       id="clipPath148">
      <path
         d="m 239.692,331.465 c 0,-19.23 15.589,-34.82 34.819,-34.82 l 0,0 c 19.23,0 34.819,15.59 34.819,34.82 l 0,0 c 0,19.23 -15.589,34.819 -34.819,34.819 l 0,0 c -19.23,0 -34.819,-15.589 -34.819,-34.819 m 3.348,0 c 0,17.38 14.09,31.47 31.471,31.47 l 0,0 c 17.381,0 31.47,-14.09 31.47,-31.47 l 0,0 c 0,-17.38 -14.089,-31.471 -31.47,-31.471 l 0,0 c -17.381,0 -31.471,14.091 -31.471,31.471"
         id="path150"
         inkscape:connector-curvature="0" />
    </clipPath>
    <linearGradient
       x1="0"
       y1="0"
       x2="1"
       y2="0"
       gradientUnits="userSpaceOnUse"
       gradientTransform="matrix(69.638397,0,0,-69.638397,239.69164,331.46494)"
       spreadMethod="pad"
       id="linearGradient156">
      <stop
         style="stop-opacity:1;stop-color:#1e2857"
         offset="0"
         id="stop158" />
      <stop
         style="stop-opacity:1;stop-color:#b31e56"
         offset="0.993409"
         id="stop160" />
      <stop
         style="stop-opacity:1;stop-color:#b31e56"
         offset="1"
         id="stop162" />
    </linearGradient>
    <clipPath
       clipPathUnits="userSpaceOnUse"
       id="clipPath126">
      <path
         d="m 302.351,351.448 c 0.275,0 18.319,-2.145 18.319,-2.145 l 0,0 c -0.275,-1.431 -11.773,-14.028 -11.773,-14.028 l 0,0 0,-5.115 c 9.792,9.297 15.953,18.868 15.953,18.868 l 0,0 c 1.596,3.74 -2.75,3.906 -2.75,3.906 l 0,0 -23.278,2.614 c -0.005,0 -0.01,10e-4 -0.015,10e-4 l 0,0 c -0.475,-10e-4 3.544,-4.101 3.544,-4.101"
         id="path128"
         inkscape:connector-curvature="0" />
    </clipPath>
    <linearGradient
       x1="0"
       y1="0"
       x2="1"
       y2="0"
       gradientUnits="userSpaceOnUse"
       gradientTransform="matrix(26.433899,0,0,-26.433899,298.76859,342.85406)"
       spreadMethod="pad"
       id="linearGradient134">
      <stop
         style="stop-opacity:1;stop-color:#1e2857"
         offset="0"
         id="stop136" />
      <stop
         style="stop-opacity:1;stop-color:#b31e56"
         offset="0.993409"
         id="stop138" />
      <stop
         style="stop-opacity:1;stop-color:#b31e56"
         offset="1"
         id="stop140" />
    </linearGradient>
    <clipPath
       clipPathUnits="userSpaceOnUse"
       id="clipPath104">
      <path
         d="m 131.332,341.59 c -3.918,-12.054 21.246,-36.315 21.246,-36.315 l 0,0 c -15.369,8.74 -22,7.497 -22,7.497 l 0,0 c -11.301,-1.543 5.876,-18.496 5.876,-18.496 l 0,0 c 23.508,-23.206 54.398,-17.782 54.398,-17.782 l 0,0 c -4.37,-3.013 -4.069,-7.383 -4.069,-7.383 l 0,0 c 1.358,-9.128 15.974,-4.37 15.974,-4.37 l 0,0 c 33.602,8.589 61.479,35.253 61.479,35.253 l 0,0 c -1.361,2.196 -4.641,0 -4.641,0 l 0,0 c -15.037,-14.171 -43.277,-28.02 -54.277,-31.034 l 0,0 c -11,-3.014 -13.261,-1.808 -14.198,-0.206 l 0,0 c -0.937,1.603 -0.621,5.002 4.688,6.433 l 0,0 c 5.309,1.431 6.647,3.267 5.894,4.924 l 0,0 c -0.755,1.657 -6.22,0.151 -6.22,0.151 l 0,0 c -17.22,-2.863 -32.506,2.561 -32.506,2.561 l 0,0 c -22.898,6.803 -31.494,23.49 -31.494,23.49 l 0,0 c 0,0 -2.704,3.591 3.851,2.579 l 0,0 c 6.556,-1.013 17.848,-8.74 21.916,-7.987 l 0,0 c 4.069,0.753 0,6.179 -6.931,13.165 l 0,0 c -6.932,6.987 -16.58,20.166 -15.822,24.658 l 0,0 c 0.758,4.491 3.203,5.908 30.933,6.479 l 0,0 c 27.729,0.57 76.166,-7.082 76.166,-7.082 l 0,0 1.445,3.767 c -2.51,0.904 -56.106,5.726 -56.106,5.726 l 0,0 c 0,0 -12.921,1.507 -26.332,1.507 l 0,0 c -13.411,0 -27.312,-1.507 -29.27,-7.535"
         id="path106"
         inkscape:connector-curvature="0" />
    </clipPath>
    <linearGradient
       x1="0"
       y1="0"
       x2="1"
       y2="0"
       gradientUnits="userSpaceOnUse"
       gradientTransform="matrix(137.50726,0,0,-137.50726,126.72822,306.31305)"
       spreadMethod="pad"
       id="linearGradient112">
      <stop
         style="stop-opacity:1;stop-color:#1e2857"
         offset="0"
         id="stop114" />
      <stop
         style="stop-opacity:1;stop-color:#b31e56"
         offset="0.993409"
         id="stop116" />
      <stop
         style="stop-opacity:1;stop-color:#b31e56"
         offset="1"
         id="stop118" />
    </linearGradient>
    <clipPath
       clipPathUnits="userSpaceOnUse"
       id="clipPath82">
      <path
         d="m 298.768,307.444 c -2.159,-5.368 -12.226,-34.114 -39.807,-52.94 l 0,0 c -25.87,-17.658 -55.908,-13.942 -55.908,-13.942 l 0,0 c -42.408,5.664 -64.047,33.403 -64.047,33.403 l 0,0 c 22.366,-13.652 43.279,2.76 43.279,2.76 l 0,0 -7.116,0.435 c -17.863,-11.182 -34.855,0.436 -34.855,0.436 l 0,0 c -3.196,2.469 -4.981,1.742 -4.981,1.742 l 0,0 c -4.689,-1.306 0.913,-7.696 0.913,-7.696 l 0,0 c 18.009,-21.349 44.661,-29.654 44.661,-29.654 l 0,0 c 39.63,-15.671 75.643,6.027 75.643,6.027 l 0,0 c 43.096,27.172 46.713,66 46.713,66 l 0,0 c 0.009,0.049 0.003,0.071 -0.016,0.071 l 0,0 c -0.322,0 -4.479,-6.642 -4.479,-6.642"
         id="path84"
         inkscape:connector-curvature="0" />
    </clipPath>
    <linearGradient
       x1="0"
       y1="0"
       x2="1"
       y2="0"
       gradientUnits="userSpaceOnUse"
       gradientTransform="matrix(169.8049,0,0,-169.8049,133.46211,275.19434)"
       spreadMethod="pad"
       id="linearGradient90">
      <stop
         style="stop-opacity:1;stop-color:#1e2857"
         offset="0"
         id="stop92" />
      <stop
         style="stop-opacity:1;stop-color:#b31e56"
         offset="0.993409"
         id="stop94" />
      <stop
         style="stop-opacity:1;stop-color:#b31e56"
         offset="1"
         id="stop96" />
    </linearGradient>
    <clipPath
       clipPathUnits="userSpaceOnUse"
       id="clipPath60">
      <path
         d="m 102.65,305.341 c -0.177,-3.708 0.706,-18.188 0.706,-18.188 l 0,0 c -16.775,3.179 -12.008,-5.827 -12.008,-5.827 l 0,0 c 0,0 6.887,-15.363 27.194,-21.72 l 0,0 c 20.307,-6.357 37.87,-3.149 37.87,-3.149 l 0,0 -5.026,2.62 c -43.085,0.529 -53.196,17.906 -55.093,21.013 l 0,0 c -4.06,6.646 1.723,3.922 6.533,3.355 l 0,0 c 4.553,-0.536 4.238,3.884 4.238,3.884 l 0,0 c 0,0 -1.059,11.655 -1.059,19.414 l 0,0 c 0,7.759 8.3,-1.402 8.3,-1.402 l 0,0 c 13.166,-14.776 40.118,-32.763 42.202,-33.904 l 0,0 c 2.086,-1.141 11.158,1.767 11.158,1.767 l 0,0 C 153.043,270.159 115.66,308.59 115.66,308.59 l 0,0 c -3.613,4.044 -6.234,5.502 -8.132,5.502 l 0,0 c -3.928,-10e-4 -4.76,-6.251 -4.878,-8.751"
         id="path62"
         inkscape:connector-curvature="0" />
    </clipPath>
    <linearGradient
       x1="0"
       y1="0"
       x2="1"
       y2="0"
       gradientUnits="userSpaceOnUse"
       gradientTransform="matrix(76.942337,0,0,-76.942337,90.721985,284.86969)"
       spreadMethod="pad"
       id="linearGradient68">
      <stop
         style="stop-opacity:1;stop-color:#1e2857"
         offset="0"
         id="stop70" />
      <stop
         style="stop-opacity:1;stop-color:#b31e56"
         offset="0.993409"
         id="stop72" />
      <stop
         style="stop-opacity:1;stop-color:#b31e56"
         offset="1"
         id="stop74" />
    </linearGradient>
    <clipPath
       clipPathUnits="userSpaceOnUse"
       id="clipPath38">
      <path
         d="m 137.811,378.433 c 4.048,-19.369 24.794,-31.512 24.794,-31.512 l 0,0 5.06,0 c 0,0 -28.935,21.799 -25.526,35.807 l 0,0 c 0,0 1.657,7.745 25.526,2 l 0,0 c 24.882,-5.988 78.976,-32.388 78.976,-32.388 l 0,0 0.567,-1.709 2.938,3.617 c 0,0 -45.431,25.541 -87.246,35.486 l 0,0 c 0,0 -4.287,0.785 -9.336,0.785 l 0,0 c -7.981,10e-4 -17.87,-1.96 -15.753,-12.086"
         id="path40"
         inkscape:connector-curvature="0" />
    </clipPath>
    <linearGradient
       x1="0"
       y1="0"
       x2="1"
       y2="0"
       gradientUnits="userSpaceOnUse"
       gradientTransform="matrix(112.62563,0,0,-112.62563,137.52083,368.72031)"
       spreadMethod="pad"
       id="linearGradient46">
      <stop
         style="stop-opacity:1;stop-color:#1e2857"
         offset="0"
         id="stop48" />
      <stop
         style="stop-opacity:1;stop-color:#b31e56"
         offset="0.993409"
         id="stop50" />
      <stop
         style="stop-opacity:1;stop-color:#b31e56"
         offset="1"
         id="stop52" />
    </linearGradient>
    <clipPath
       clipPathUnits="userSpaceOnUse"
       id="clipPath16">
      <path
         d="m 65.597,321.248 c 0,-79.399 64.366,-143.764 143.765,-143.764 l 0,0 c 79.398,0 143.764,64.365 143.764,143.764 l 0,0 c 0,79.399 -64.366,143.764 -143.764,143.764 l 0,0 c -79.399,0 -143.765,-64.365 -143.765,-143.764 m 5.33,0 c 0,76.455 61.98,138.434 138.435,138.434 l 0,0 c 76.455,0 138.433,-61.979 138.433,-138.434 l 0,0 c 0,-76.455 -61.978,-138.435 -138.433,-138.435 l 0,0 c -76.455,0 -138.435,61.98 -138.435,138.435"
         id="path18"
         inkscape:connector-curvature="0" />
    </clipPath>
    <linearGradient
       x1="0"
       y1="0"
       x2="1"
       y2="0"
       gradientUnits="userSpaceOnUse"
       gradientTransform="matrix(287.52856,0,0,-287.52856,65.596947,321.24789)"
       spreadMethod="pad"
       id="linearGradient24">
      <stop
         style="stop-opacity:1;stop-color:#1e2857"
         offset="0"
         id="stop26" />
      <stop
         style="stop-opacity:1;stop-color:#b31e56"
         offset="0.993409"
         id="stop28" />
      <stop
         style="stop-opacity:1;stop-color:#b31e56"
         offset="1"
         id="stop30" />
    </linearGradient>
  </defs>
  <sodipodi:namedview
     pagecolor="#ffffff"
     bordercolor="#666666"
     borderopacity="1"
     objecttolerance="10"
     gridtolerance="10"
     guidetolerance="10"
     inkscape:pageopacity="0"
     inkscape:pageshadow="2"
     inkscape:window-width="1360"
     inkscape:window-height="704"
     id="namedview3931"
     showgrid="false"
     fit-margin-top="0"
     fit-margin-left="0"
     fit-margin-right="0"
     fit-margin-bottom="0"
     inkscape:zoom="0.22425739"
     inkscape:cx="-618.77712"
     inkscape:cy="76.451717"
     inkscape:window-x="0"
     inkscape:window-y="27"
     inkscape:window-maximized="1"
     inkscape:current-layer="svg3927" />
  <metadata
     id="metadata3929">
    <rdf:RDF>
      <cc:Work
         rdf:about="">
        <dc:format>image/svg+xml</dc:format>
        <dc:type
           rdf:resource="http://purl.org/dc/dcmitype/StillImage" />
        <dc:title></dc:title>
      </cc:Work>
    </rdf:RDF>
  </metadata>
  <g
     transform="matrix(1.25,0,0,-1.25,-81.99625,581.26498)"
     id="g12"
     style="fill:#ffffff;fill-opacity:1">
    <g
       id="g14"
       clip-path="url(#clipPath16)"
       style="fill:#ffffff;fill-opacity:1">
      <g
         id="g20"
         style="fill:#ffffff;fill-opacity:1">
        <g
           id="g22"
           style="fill:#ffffff;fill-opacity:1">
          <path
             d="m 65.597,321.248 c 0,-79.399 64.366,-143.764 143.765,-143.764 l 0,0 c 79.398,0 143.764,64.365 143.764,143.764 l 0,0 c 0,79.399 -64.366,143.764 -143.764,143.764 l 0,0 c -79.399,0 -143.765,-64.365 -143.765,-143.764 m 5.33,0 c 0,76.455 61.98,138.434 138.435,138.434 l 0,0 c 76.455,0 138.433,-61.979 138.433,-138.434 l 0,0 c 0,-76.455 -61.978,-138.435 -138.433,-138.435 l 0,0 c -76.455,0 -138.435,61.98 -138.435,138.435"
             style="fill:#ffffff;fill-opacity:1;stroke:none"
             id="path32"
             inkscape:connector-curvature="0" />
        </g>
      </g>
    </g>
  </g>
  <g
     transform="matrix(1.25,0,0,-1.25,-81.99625,581.26498)"
     id="g34"
     style="fill:#ffffff;fill-opacity:1">
    <g
       id="g36"
       clip-path="url(#clipPath38)"
       style="fill:#ffffff;fill-opacity:1">
      <g
         id="g42"
         style="fill:#ffffff;fill-opacity:1">
        <g
           id="g44"
           style="fill:#ffffff;fill-opacity:1">
          <path
             d="m 137.811,378.433 c 4.048,-19.369 24.794,-31.512 24.794,-31.512 l 0,0 5.06,0 c 0,0 -28.935,21.799 -25.526,35.807 l 0,0 c 0,0 1.657,7.745 25.526,2 l 0,0 c 24.882,-5.988 78.976,-32.388 78.976,-32.388 l 0,0 0.567,-1.709 2.938,3.617 c 0,0 -45.431,25.541 -87.246,35.486 l 0,0 c 0,0 -4.287,0.785 -9.336,0.785 l 0,0 c -7.981,10e-4 -17.87,-1.96 -15.753,-12.086"
             style="fill:#ffffff;fill-opacity:1;stroke:none"
             id="path54"
             inkscape:connector-curvature="0" />
        </g>
      </g>
    </g>
  </g>
  <g
     transform="matrix(1.25,0,0,-1.25,-81.99625,581.26498)"
     id="g56"
     style="fill:#ffffff;fill-opacity:1">
    <g
       id="g58"
       clip-path="url(#clipPath60)"
       style="fill:#ffffff;fill-opacity:1">
      <g
         id="g64"
         style="fill:#ffffff;fill-opacity:1">
        <g
           id="g66"
           style="fill:#ffffff;fill-opacity:1">
          <path
             d="m 102.65,305.341 c -0.177,-3.708 0.706,-18.188 0.706,-18.188 l 0,0 c -16.775,3.179 -12.008,-5.827 -12.008,-5.827 l 0,0 c 0,0 6.887,-15.363 27.194,-21.72 l 0,0 c 20.307,-6.357 37.87,-3.149 37.87,-3.149 l 0,0 -5.026,2.62 c -43.085,0.529 -53.196,17.906 -55.093,21.013 l 0,0 c -4.06,6.646 1.723,3.922 6.533,3.355 l 0,0 c 4.553,-0.536 4.238,3.884 4.238,3.884 l 0,0 c 0,0 -1.059,11.655 -1.059,19.414 l 0,0 c 0,7.759 8.3,-1.402 8.3,-1.402 l 0,0 c 13.166,-14.776 40.118,-32.763 42.202,-33.904 l 0,0 c 2.086,-1.141 11.158,1.767 11.158,1.767 l 0,0 C 153.043,270.159 115.66,308.59 115.66,308.59 l 0,0 c -3.613,4.044 -6.234,5.502 -8.132,5.502 l 0,0 c -3.928,-10e-4 -4.76,-6.251 -4.878,-8.751"
             style="fill:#ffffff;fill-opacity:1;stroke:none"
             id="path76"
             inkscape:connector-curvature="0" />
        </g>
      </g>
    </g>
  </g>
  <g
     transform="matrix(1.25,0,0,-1.25,-81.99625,581.26498)"
     id="g78"
     style="fill:#ffffff;fill-opacity:1">
    <g
       id="g80"
       clip-path="url(#clipPath82)"
       style="fill:#ffffff;fill-opacity:1">
      <g
         id="g86"
         style="fill:#ffffff;fill-opacity:1">
        <g
           id="g88"
           style="fill:#ffffff;fill-opacity:1">
          <path
             d="m 298.768,307.444 c -2.159,-5.368 -12.226,-34.114 -39.807,-52.94 l 0,0 c -25.87,-17.658 -55.908,-13.942 -55.908,-13.942 l 0,0 c -42.408,5.664 -64.047,33.403 -64.047,33.403 l 0,0 c 22.366,-13.652 43.279,2.76 43.279,2.76 l 0,0 -7.116,0.435 c -17.863,-11.182 -34.855,0.436 -34.855,0.436 l 0,0 c -3.196,2.469 -4.981,1.742 -4.981,1.742 l 0,0 c -4.689,-1.306 0.913,-7.696 0.913,-7.696 l 0,0 c 18.009,-21.349 44.661,-29.654 44.661,-29.654 l 0,0 c 39.63,-15.671 75.643,6.027 75.643,6.027 l 0,0 c 43.096,27.172 46.713,66 46.713,66 l 0,0 c 0.009,0.049 0.003,0.071 -0.016,0.071 l 0,0 c -0.322,0 -4.479,-6.642 -4.479,-6.642"
             style="fill:#ffffff;fill-opacity:1;stroke:none"
             id="path98"
             inkscape:connector-curvature="0" />
        </g>
      </g>
    </g>
  </g>
  <g
     transform="matrix(1.25,0,0,-1.25,-81.99625,581.26498)"
     id="g100"
     style="fill:#ffffff;fill-opacity:1">
    <g
       id="g102"
       clip-path="url(#clipPath104)"
       style="fill:#ffffff;fill-opacity:1">
      <g
         id="g108"
         style="fill:#ffffff;fill-opacity:1">
        <g
           id="g110"
           style="fill:#ffffff;fill-opacity:1">
          <path
             d="m 131.332,341.59 c -3.918,-12.054 21.246,-36.315 21.246,-36.315 l 0,0 c -15.369,8.74 -22,7.497 -22,7.497 l 0,0 c -11.301,-1.543 5.876,-18.496 5.876,-18.496 l 0,0 c 23.508,-23.206 54.398,-17.782 54.398,-17.782 l 0,0 c -4.37,-3.013 -4.069,-7.383 -4.069,-7.383 l 0,0 c 1.358,-9.128 15.974,-4.37 15.974,-4.37 l 0,0 c 33.602,8.589 61.479,35.253 61.479,35.253 l 0,0 c -1.361,2.196 -4.641,0 -4.641,0 l 0,0 c -15.037,-14.171 -43.277,-28.02 -54.277,-31.034 l 0,0 c -11,-3.014 -13.261,-1.808 -14.198,-0.206 l 0,0 c -0.937,1.603 -0.621,5.002 4.688,6.433 l 0,0 c 5.309,1.431 6.647,3.267 5.894,4.924 l 0,0 c -0.755,1.657 -6.22,0.151 -6.22,0.151 l 0,0 c -17.22,-2.863 -32.506,2.561 -32.506,2.561 l 0,0 c -22.898,6.803 -31.494,23.49 -31.494,23.49 l 0,0 c 0,0 -2.704,3.591 3.851,2.579 l 0,0 c 6.556,-1.013 17.848,-8.74 21.916,-7.987 l 0,0 c 4.069,0.753 0,6.179 -6.931,13.165 l 0,0 c -6.932,6.987 -16.58,20.166 -15.822,24.658 l 0,0 c 0.758,4.491 3.203,5.908 30.933,6.479 l 0,0 c 27.729,0.57 76.166,-7.082 76.166,-7.082 l 0,0 1.445,3.767 c -2.51,0.904 -56.106,5.726 -56.106,5.726 l 0,0 c 0,0 -12.921,1.507 -26.332,1.507 l 0,0 c -13.411,0 -27.312,-1.507 -29.27,-7.535"
             style="fill:#ffffff;fill-opacity:1;stroke:none"
             id="path120"
             inkscape:connector-curvature="0" />
        </g>
      </g>
    </g>
  </g>
  <g
     transform="matrix(1.25,0,0,-1.25,-81.99625,581.26498)"
     id="g122"
     style="fill:#ffffff;fill-opacity:1">
    <g
       id="g124"
       clip-path="url(#clipPath126)"
       style="fill:#ffffff;fill-opacity:1">
      <g
         id="g130"
         style="fill:#ffffff;fill-opacity:1">
        <g
           id="g132"
           style="fill:#ffffff;fill-opacity:1">
          <path
             d="m 302.351,351.448 c 0.275,0 18.319,-2.145 18.319,-2.145 l 0,0 c -0.275,-1.431 -11.773,-14.028 -11.773,-14.028 l 0,0 0,-5.115 c 9.792,9.297 15.953,18.868 15.953,18.868 l 0,0 c 1.596,3.74 -2.75,3.906 -2.75,3.906 l 0,0 -23.278,2.614 c -0.005,0 -0.01,10e-4 -0.015,10e-4 l 0,0 c -0.475,-10e-4 3.544,-4.101 3.544,-4.101"
             style="fill:#ffffff;fill-opacity:1;stroke:none"
             id="path142"
             inkscape:connector-curvature="0" />
        </g>
      </g>
    </g>
  </g>
  <g
     transform="matrix(1.25,0,0,-1.25,-81.99625,581.26498)"
     id="g144"
     style="fill:#ffffff;fill-opacity:1">
    <g
       id="g146"
       clip-path="url(#clipPath148)"
       style="fill:#ffffff;fill-opacity:1">
      <g
         id="g152"
         style="fill:#ffffff;fill-opacity:1">
        <g
           id="g154"
           style="fill:#ffffff;fill-opacity:1">
          <path
             d="m 239.692,331.465 c 0,-19.23 15.589,-34.82 34.819,-34.82 l 0,0 c 19.23,0 34.819,15.59 34.819,34.82 l 0,0 c 0,19.23 -15.589,34.819 -34.819,34.819 l 0,0 c -19.23,0 -34.819,-15.589 -34.819,-34.819 m 3.348,0 c 0,17.38 14.09,31.47 31.471,31.47 l 0,0 c 17.381,0 31.47,-14.09 31.47,-31.47 l 0,0 c 0,-17.38 -14.089,-31.471 -31.47,-31.471 l 0,0 c -17.381,0 -31.471,14.091 -31.471,31.471"
             style="fill:#ffffff;fill-opacity:1;stroke:none"
             id="path164"
             inkscape:connector-curvature="0" />
        </g>
      </g>
    </g>
  </g>
  <g
     transform="matrix(1.25,0,0,-1.25,-81.99625,581.26498)"
     id="g166"
     style="fill:#ffffff;fill-opacity:1">
    <g
       id="g168"
       clip-path="url(#clipPath170)"
       style="fill:#ffffff;fill-opacity:1">
      <g
         id="g174"
         style="fill:#ffffff;fill-opacity:1">
        <g
           id="g176"
           style="fill:#ffffff;fill-opacity:1">
          <path
             d="m 282.871,329.367 c 0,-3.534 2.865,-6.398 6.399,-6.398 l 0,0 c 3.534,0 6.399,2.864 6.399,6.398 l 0,0 c 0,3.534 -2.865,6.399 -6.399,6.399 l 0,0 c -3.534,0 -6.399,-2.865 -6.399,-6.399 m 3.671,0 c 0,1.507 1.221,2.728 2.728,2.728 l 0,0 c 1.506,0 2.728,-1.221 2.728,-2.728 l 0,0 c 0,-1.507 -1.222,-2.728 -2.728,-2.728 l 0,0 c -1.507,0 -2.728,1.221 -2.728,2.728"
             style="fill:#ffffff;fill-opacity:1;stroke:none"
             id="path186"
             inkscape:connector-curvature="0" />
        </g>
      </g>
    </g>
  </g>
  <g
     transform="matrix(1.25,0,0,-1.25,-81.99625,581.26498)"
     id="g188"
     style="fill:#ffffff;fill-opacity:1">
    <g
       id="g190"
       clip-path="url(#clipPath192)"
       style="fill:#ffffff;fill-opacity:1">
      <g
         id="g196"
         style="fill:#ffffff;fill-opacity:1">
        <g
           id="g198"
           style="fill:#ffffff;fill-opacity:1">
          <path
             d="m 98.871,204.599 -28.065,-24.759 2.393,-2.714 27.978,24.681 c 1.77,-1.918 2.523,-1.965 5.82,-5.701 l 0,0 c 3.571,-4.047 2.984,-9.389 -1.242,-13.117 l 0,0 c -4.313,-3.806 -9.644,-3.683 -13.214,0.364 l 0,0 c -1.766,2.002 -3.286,3.905 -3.286,3.905 l 0,0 -2.446,-2.16 c 0,0 1.44,-1.813 3.403,-4.036 l 0,0 c 4.905,-5.559 12.342,-5.563 17.858,-0.698 l 0,0 c 5.471,4.826 6.397,12.206 1.491,17.766 l 0,0 c -3.296,3.737 -4.212,3.879 -6.645,6.636 l 0,0 c -2.079,2.357 -2.948,4.597 -2.89,6.863 l 0,0 -2.806,0.134 c -0.588,-2.654 0.271,-5.061 1.651,-7.164"
             style="fill:#ffffff;fill-opacity:1;stroke:none"
             id="path210"
             inkscape:connector-curvature="0" />
        </g>
      </g>
    </g>
  </g>
  <g
     transform="matrix(1.25,0,0,-1.25,-81.99625,581.26498)"
     id="g212"
     style="fill:#ffffff;fill-opacity:1">
    <g
       id="g214"
       clip-path="url(#clipPath216)"
       style="fill:#ffffff;fill-opacity:1">
      <g
         id="g220"
         style="fill:#ffffff;fill-opacity:1">
        <g
           id="g222"
           style="fill:#ffffff;fill-opacity:1">
          <path
             d="m 94.352,154.402 3.145,-2.127 12.21,7.994 14.492,-9.803 -2.78,-14.374 3.145,-2.127 8.674,44.47 -0.934,0.631 -37.952,-24.664 z m 18.428,7.87 12.607,8.156 c 1.289,0.846 2.794,2.119 3.77,3.034 l 0,0 c -0.452,-1.198 -1.074,-3.069 -1.363,-4.663 l 0,0 -2.88,-14.735 -12.134,8.208 z"
             style="fill:#ffffff;fill-opacity:1;stroke:none"
             id="path234"
             inkscape:connector-curvature="0" />
        </g>
      </g>
    </g>
  </g>
  <g
     transform="matrix(1.25,0,0,-1.25,-81.99625,581.26498)"
     id="g236"
     style="fill:#ffffff;fill-opacity:1">
    <g
       id="g238"
       clip-path="url(#clipPath240)"
       style="fill:#ffffff;fill-opacity:1">
      <g
         id="g244"
         style="fill:#ffffff;fill-opacity:1">
        <g
           id="g246"
           style="fill:#ffffff;fill-opacity:1">
          <path
             d="m 147.361,168.091 c 0.829,-2.587 2.782,-4.236 5.036,-5.358 l 0,0 -11.792,-35.527 3.434,-1.139 5.55,16.721 5.405,-1.794 c 5.123,-1.701 6.759,-5.056 7.01,-9.765 l 0,0 0.615,-11.329 3.715,-1.234 -1.03,13.844 c -0.267,3.151 -1.02,5.589 -3.124,7.536 l 0,0 c 4.784,-0.087 8.682,2.432 10.382,7.554 l 0,0 c 2.131,6.42 -0.972,12.699 -7.671,14.924 l 0,0 c -4.731,1.569 -5.593,1.23 -9.084,2.388 l 0,0 c -2.984,0.991 -4.861,2.49 -5.953,4.477 l 0,0 -2.493,-1.298 z m 11.082,-24.804 -7.826,2.598 5.177,15.595 c 2.495,-0.765 3.17,-0.428 7.9,-1.997 l 0,0 c 4.953,-1.646 7.117,-5.863 5.491,-10.761 l 0,0 c -1.293,-3.891 -4.238,-5.952 -7.678,-5.952 l 0,0 c -0.989,0 -2.02,0.171 -3.064,0.517"
             style="fill:#ffffff;fill-opacity:1;stroke:none"
             id="path258"
             inkscape:connector-curvature="0" />
        </g>
      </g>
    </g>
  </g>
  <g
     transform="matrix(1.25,0,0,-1.25,-81.99625,581.26498)"
     id="g260"
     style="fill:#ffffff;fill-opacity:1">
    <g
       id="g262"
       clip-path="url(#clipPath264)"
       style="fill:#ffffff;fill-opacity:1">
      <g
         id="g268"
         style="fill:#ffffff;fill-opacity:1">
        <g
           id="g270"
           style="fill:#ffffff;fill-opacity:1">
          <path
             d="m 181.264,156.332 8.369,-33.52 c 1.002,-4.025 3.601,-8.183 8.755,-8.42 l 0,0 c 0.889,-0.041 2.08,0.023 3.098,0.213 l 0,0 14.969,39.983 -3.331,1.162 -14.353,-38.229 c -3.127,0.442 -4.808,2.597 -5.601,6.019 l 0,0 -8.368,33.519 -3.538,-0.727 z"
             style="fill:#ffffff;fill-opacity:1;stroke:none"
             id="path282"
             inkscape:connector-curvature="0" />
        </g>
      </g>
    </g>
  </g>
  <g
     transform="matrix(1.25,0,0,-1.25,-81.99625,581.26498)"
     id="g284"
     style="fill:#ffffff;fill-opacity:1">
    <g
       id="g286"
       clip-path="url(#clipPath288)"
       style="fill:#ffffff;fill-opacity:1">
      <g
         id="g292"
         style="fill:#ffffff;fill-opacity:1">
        <g
           id="g294"
           style="fill:#ffffff;fill-opacity:1">
          <path
             d="m 232.434,159.884 -7.849,-44.582 3.7,0.848 2.482,14.384 17.055,3.913 8.619,-11.839 3.7,0.849 -26.609,36.68 -1.098,-0.253 z m 1.599,-10.952 c 0.26,1.52 0.357,3.49 0.353,4.828 l 0,0 c 0.567,-1.148 1.514,-2.879 2.48,-4.178 l 0,0 8.813,-12.159 -14.281,-3.274 2.635,14.783 z"
             style="fill:#ffffff;fill-opacity:1;stroke:none"
             id="path306"
             inkscape:connector-curvature="0" />
        </g>
      </g>
    </g>
  </g>
  <g
     transform="matrix(1.25,0,0,-1.25,-81.99625,581.26498)"
     id="g308"
     style="fill:#ffffff;fill-opacity:1">
    <g
       id="g310"
       clip-path="url(#clipPath312)"
       style="fill:#ffffff;fill-opacity:1">
      <g
         id="g316"
         style="fill:#ffffff;fill-opacity:1">
        <g
           id="g318"
           style="fill:#ffffff;fill-opacity:1">
          <path
             d="m 268.727,173.51 c -4.288,-2.539 -6.996,-4.832 -10.161,-6.706 l 0,0 c -2.704,-1.603 -5.066,-2.036 -7.281,-1.556 l 0,0 -0.656,-2.732 c 2.496,-1.072 5.021,-0.68 7.345,0.283 l 0,0 19.074,-32.199 c 0,0 2.548,0.819 12.958,6.986 l 0,0 c 10.87,6.437 13.114,18.244 7.068,28.45 l 0,0 c -3.989,6.735 -10.373,10.656 -17.391,10.655 l 0,0 c -3.565,0 -7.295,-1.012 -10.956,-3.181 m -7.579,-8.969 c 2.776,1.714 5.514,3.956 9.241,6.163 l 0,0 c 8.981,5.32 18.333,2.449 23.622,-6.481 l 0,0 c 5.32,-8.981 3.314,-18.511 -5.668,-23.832 l 0,0 c -4.389,-2.599 -7.51,-4.31 -9.693,-5.396 l 0,0 -17.502,29.546 z"
             style="fill:#ffffff;fill-opacity:1;stroke:none"
             id="path330"
             inkscape:connector-curvature="0" />
        </g>
      </g>
    </g>
  </g>
  <g
     transform="matrix(1.25,0,0,-1.25,-81.99625,581.26498)"
     id="g332"
     style="fill:#ffffff;fill-opacity:1">
    <g
       id="g334"
       clip-path="url(#clipPath336)"
       style="fill:#ffffff;fill-opacity:1">
      <g
         id="g340"
         style="fill:#ffffff;fill-opacity:1">
        <g
           id="g342"
           style="fill:#ffffff;fill-opacity:1">
          <path
             d="m 298.736,198.237 18.95,-41.109 2.557,2.806 -6.154,13.235 11.785,12.932 13.827,-4.818 2.558,2.806 -42.764,14.981 -0.759,-0.833 z m 7.554,-8.09 c -0.653,1.398 -1.696,3.071 -2.461,4.169 l 0,0 c 1.12,-0.619 2.883,-1.503 4.419,-2.019 l 0,0 14.17,-4.971 -9.871,-10.828 -6.257,13.649 z"
             style="fill:#ffffff;fill-opacity:1;stroke:none"
             id="path354"
             inkscape:connector-curvature="0" />
        </g>
      </g>
    </g>
  </g>
</svg>
