<?xml version="1.0" encoding="UTF-8" standalone="no"?>
<!-- Created with Inkscape (http://www.inkscape.org/) -->

<svg
   xmlns:dc="http://purl.org/dc/elements/1.1/"
   xmlns:cc="http://creativecommons.org/ns#"
   xmlns:rdf="http://www.w3.org/1999/02/22-rdf-syntax-ns#"
   xmlns:svg="http://www.w3.org/2000/svg"
   xmlns="http://www.w3.org/2000/svg"
   xmlns:sodipodi="http://sodipodi.sourceforge.net/DTD/sodipodi-0.dtd"
   xmlns:inkscape="http://www.inkscape.org/namespaces/inkscape"
   height="101.43348mm"
   width="101.43383mm"
   viewBox="0 0 359.41121 359.40996"
   id="svg5025"
   version="1.1"
   inkscape:version="0.91 r13725"
   sodipodi:docname="solo.svg">
  <defs
     id="defs5031">
    <clipPath
       clipPathUnits="userSpaceOnUse"
       id="clipPath170">
      <path
         d="m 282.871,329.367 c 0,-3.534 2.865,-6.398 6.399,-6.398 l 0,0 c 3.534,0 6.399,2.864 6.399,6.398 l 0,0 c 0,3.534 -2.865,6.399 -6.399,6.399 l 0,0 c -3.534,0 -6.399,-2.865 -6.399,-6.399 m 3.671,0 c 0,1.507 1.221,2.728 2.728,2.728 l 0,0 c 1.506,0 2.728,-1.221 2.728,-2.728 l 0,0 c 0,-1.507 -1.222,-2.728 -2.728,-2.728 l 0,0 c -1.507,0 -2.728,1.221 -2.728,2.728"
         id="path172"
         inkscape:connector-curvature="0" />
    </clipPath>
    <clipPath
       clipPathUnits="userSpaceOnUse"
       id="clipPath148">
      <path
         d="m 239.692,331.465 c 0,-19.23 15.589,-34.82 34.819,-34.82 l 0,0 c 19.23,0 34.819,15.59 34.819,34.82 l 0,0 c 0,19.23 -15.589,34.819 -34.819,34.819 l 0,0 c -19.23,0 -34.819,-15.589 -34.819,-34.819 m 3.348,0 c 0,17.38 14.09,31.47 31.471,31.47 l 0,0 c 17.381,0 31.47,-14.09 31.47,-31.47 l 0,0 c 0,-17.38 -14.089,-31.471 -31.47,-31.471 l 0,0 c -17.381,0 -31.471,14.091 -31.471,31.471"
         id="path150"
         inkscape:connector-curvature="0" />
    </clipPath>
    <clipPath
       clipPathUnits="userSpaceOnUse"
       id="clipPath126">
      <path
         d="m 302.351,351.448 c 0.275,0 18.319,-2.145 18.319,-2.145 l 0,0 c -0.275,-1.431 -11.773,-14.028 -11.773,-14.028 l 0,0 0,-5.115 c 9.792,9.297 15.953,18.868 15.953,18.868 l 0,0 c 1.596,3.74 -2.75,3.906 -2.75,3.906 l 0,0 -23.278,2.614 c -0.005,0 -0.01,10e-4 -0.015,10e-4 l 0,0 c -0.475,-10e-4 3.544,-4.101 3.544,-4.101"
         id="path128"
         inkscape:connector-curvature="0" />
    </clipPath>
    <clipPath
       clipPathUnits="userSpaceOnUse"
       id="clipPath104">
      <path
         d="m 131.332,341.59 c -3.918,-12.054 21.246,-36.315 21.246,-36.315 l 0,0 c -15.369,8.74 -22,7.497 -22,7.497 l 0,0 c -11.301,-1.543 5.876,-18.496 5.876,-18.496 l 0,0 c 23.508,-23.206 54.398,-17.782 54.398,-17.782 l 0,0 c -4.37,-3.013 -4.069,-7.383 -4.069,-7.383 l 0,0 c 1.358,-9.128 15.974,-4.37 15.974,-4.37 l 0,0 c 33.602,8.589 61.479,35.253 61.479,35.253 l 0,0 c -1.361,2.196 -4.641,0 -4.641,0 l 0,0 c -15.037,-14.171 -43.277,-28.02 -54.277,-31.034 l 0,0 c -11,-3.014 -13.261,-1.808 -14.198,-0.206 l 0,0 c -0.937,1.603 -0.621,5.002 4.688,6.433 l 0,0 c 5.309,1.431 6.647,3.267 5.894,4.924 l 0,0 c -0.755,1.657 -6.22,0.151 -6.22,0.151 l 0,0 c -17.22,-2.863 -32.506,2.561 -32.506,2.561 l 0,0 c -22.898,6.803 -31.494,23.49 -31.494,23.49 l 0,0 c 0,0 -2.704,3.591 3.851,2.579 l 0,0 c 6.556,-1.013 17.848,-8.74 21.916,-7.987 l 0,0 c 4.069,0.753 0,6.179 -6.931,13.165 l 0,0 c -6.932,6.987 -16.58,20.166 -15.822,24.658 l 0,0 c 0.758,4.491 3.203,5.908 30.933,6.479 l 0,0 c 27.729,0.57 76.166,-7.082 76.166,-7.082 l 0,0 1.445,3.767 c -2.51,0.904 -56.106,5.726 -56.106,5.726 l 0,0 c 0,0 -12.921,1.507 -26.332,1.507 l 0,0 c -13.411,0 -27.312,-1.507 -29.27,-7.535"
         id="path106"
         inkscape:connector-curvature="0" />
    </clipPath>
    <clipPath
       clipPathUnits="userSpaceOnUse"
       id="clipPath82">
      <path
         d="m 298.768,307.444 c -2.159,-5.368 -12.226,-34.114 -39.807,-52.94 l 0,0 c -25.87,-17.658 -55.908,-13.942 -55.908,-13.942 l 0,0 c -42.408,5.664 -64.047,33.403 -64.047,33.403 l 0,0 c 22.366,-13.652 43.279,2.76 43.279,2.76 l 0,0 -7.116,0.435 c -17.863,-11.182 -34.855,0.436 -34.855,0.436 l 0,0 c -3.196,2.469 -4.981,1.742 -4.981,1.742 l 0,0 c -4.689,-1.306 0.913,-7.696 0.913,-7.696 l 0,0 c 18.009,-21.349 44.661,-29.654 44.661,-29.654 l 0,0 c 39.63,-15.671 75.643,6.027 75.643,6.027 l 0,0 c 43.096,27.172 46.713,66 46.713,66 l 0,0 c 0.009,0.049 0.003,0.071 -0.016,0.071 l 0,0 c -0.322,0 -4.479,-6.642 -4.479,-6.642"
         id="path84"
         inkscape:connector-curvature="0" />
    </clipPath>
    <clipPath
       clipPathUnits="userSpaceOnUse"
       id="clipPath60">
      <path
         d="m 102.65,305.341 c -0.177,-3.708 0.706,-18.188 0.706,-18.188 l 0,0 c -16.775,3.179 -12.008,-5.827 -12.008,-5.827 l 0,0 c 0,0 6.887,-15.363 27.194,-21.72 l 0,0 c 20.307,-6.357 37.87,-3.149 37.87,-3.149 l 0,0 -5.026,2.62 c -43.085,0.529 -53.196,17.906 -55.093,21.013 l 0,0 c -4.06,6.646 1.723,3.922 6.533,3.355 l 0,0 c 4.553,-0.536 4.238,3.884 4.238,3.884 l 0,0 c 0,0 -1.059,11.655 -1.059,19.414 l 0,0 c 0,7.759 8.3,-1.402 8.3,-1.402 l 0,0 c 13.166,-14.776 40.118,-32.763 42.202,-33.904 l 0,0 c 2.086,-1.141 11.158,1.767 11.158,1.767 l 0,0 C 153.043,270.159 115.66,308.59 115.66,308.59 l 0,0 c -3.613,4.044 -6.234,5.502 -8.132,5.502 l 0,0 c -3.928,-10e-4 -4.76,-6.251 -4.878,-8.751"
         id="path62"
         inkscape:connector-curvature="0" />
    </clipPath>
    <clipPath
       clipPathUnits="userSpaceOnUse"
       id="clipPath38">
      <path
         d="m 137.811,378.433 c 4.048,-19.369 24.794,-31.512 24.794,-31.512 l 0,0 5.06,0 c 0,0 -28.935,21.799 -25.526,35.807 l 0,0 c 0,0 1.657,7.745 25.526,2 l 0,0 c 24.882,-5.988 78.976,-32.388 78.976,-32.388 l 0,0 0.567,-1.709 2.938,3.617 c 0,0 -45.431,25.541 -87.246,35.486 l 0,0 c 0,0 -4.287,0.785 -9.336,0.785 l 0,0 c -7.981,10e-4 -17.87,-1.96 -15.753,-12.086"
         id="path40"
         inkscape:connector-curvature="0" />
    </clipPath>
    <clipPath
       clipPathUnits="userSpaceOnUse"
       id="clipPath16">
      <path
         d="m 65.597,321.248 c 0,-79.399 64.366,-143.764 143.765,-143.764 l 0,0 c 79.398,0 143.764,64.365 143.764,143.764 l 0,0 c 0,79.399 -64.366,143.764 -143.764,143.764 l 0,0 c -79.399,0 -143.765,-64.365 -143.765,-143.764 m 5.33,0 c 0,76.455 61.98,138.434 138.435,138.434 l 0,0 c 76.455,0 138.433,-61.979 138.433,-138.434 l 0,0 c 0,-76.455 -61.978,-138.435 -138.433,-138.435 l 0,0 c -76.455,0 -138.435,61.98 -138.435,138.435"
         id="path18"
         inkscape:connector-curvature="0" />
    </clipPath>
  </defs>
  <sodipodi:namedview
     pagecolor="#ffffff"
     bordercolor="#666666"
     borderopacity="1"
     objecttolerance="10"
     gridtolerance="10"
     guidetolerance="10"
     inkscape:pageopacity="0"
     inkscape:pageshadow="2"
     inkscape:window-width="784"
     inkscape:window-height="480"
     id="namedview5029"
     showgrid="false"
     inkscape:zoom="0.22425739"
     inkscape:cx="226.23403"
     inkscape:cy="-87.844725"
     inkscape:window-x="0"
     inkscape:window-y="27"
     inkscape:window-maximized="0"
     inkscape:current-layer="svg5025"
     fit-margin-top="0"
     fit-margin-left="0"
     fit-margin-right="0"
     fit-margin-bottom="0" />
  <metadata
     id="metadata5027">
    <rdf:RDF>
      <cc:Work
         rdf:about="">
        <dc:format>image/svg+xml</dc:format>
        <dc:type
           rdf:resource="http://purl.org/dc/dcmitype/StillImage" />
        <dc:title></dc:title>
      </cc:Work>
    </rdf:RDF>
  </metadata>
  <g
     id="g5197"
     transform="translate(-145.81321,-78.926407)"
     style="fill:#ffffff;fill-opacity:1">
    <g
       inkscape:export-ydpi="90"
       inkscape:export-xdpi="90"
       style="fill:#ffffff;fill-opacity:1"
       id="g12"
       transform="matrix(1.2499999,0,0,-1.2499999,63.816966,660.19136)">
      <g
         style="fill:#ffffff;fill-opacity:1"
         clip-path="url(#clipPath16)"
         id="g14">
        <g
           style="fill:#ffffff;fill-opacity:1"
           id="g20">
          <g
             style="fill:#ffffff;fill-opacity:1"
             id="g22">
            <path
               inkscape:connector-curvature="0"
               id="path32"
               style="fill:#ffffff;fill-opacity:1;stroke:none"
               d="m 65.597,321.248 c 0,-79.399 64.366,-143.764 143.765,-143.764 l 0,0 c 79.398,0 143.764,64.365 143.764,143.764 l 0,0 c 0,79.399 -64.366,143.764 -143.764,143.764 l 0,0 c -79.399,0 -143.765,-64.365 -143.765,-143.764 m 5.33,0 c 0,76.455 61.98,138.434 138.435,138.434 l 0,0 c 76.455,0 138.433,-61.979 138.433,-138.434 l 0,0 c 0,-76.455 -61.978,-138.435 -138.433,-138.435 l 0,0 c -76.455,0 -138.435,61.98 -138.435,138.435" />
          </g>
        </g>
      </g>
    </g>
    <g
       inkscape:export-ydpi="90"
       inkscape:export-xdpi="90"
       style="fill:#ffffff;fill-opacity:1"
       id="g34"
       transform="matrix(1.2499999,0,0,-1.2499999,63.816966,660.19136)">
      <g
         style="fill:#ffffff;fill-opacity:1"
         clip-path="url(#clipPath38)"
         id="g36">
        <g
           style="fill:#ffffff;fill-opacity:1"
           id="g42">
          <g
             style="fill:#ffffff;fill-opacity:1"
             id="g44">
            <path
               inkscape:connector-curvature="0"
               id="path54"
               style="fill:#ffffff;fill-opacity:1;stroke:none"
               d="m 137.811,378.433 c 4.048,-19.369 24.794,-31.512 24.794,-31.512 l 0,0 5.06,0 c 0,0 -28.935,21.799 -25.526,35.807 l 0,0 c 0,0 1.657,7.745 25.526,2 l 0,0 c 24.882,-5.988 78.976,-32.388 78.976,-32.388 l 0,0 0.567,-1.709 2.938,3.617 c 0,0 -45.431,25.541 -87.246,35.486 l 0,0 c 0,0 -4.287,0.785 -9.336,0.785 l 0,0 c -7.981,10e-4 -17.87,-1.96 -15.753,-12.086" />
          </g>
        </g>
      </g>
    </g>
    <g
       inkscape:export-ydpi="90"
       inkscape:export-xdpi="90"
       style="fill:#ffffff;fill-opacity:1"
       id="g56"
       transform="matrix(1.2499999,0,0,-1.2499999,63.816966,660.19136)">
      <g
         style="fill:#ffffff;fill-opacity:1"
         clip-path="url(#clipPath60)"
         id="g58">
        <g
           style="fill:#ffffff;fill-opacity:1"
           id="g64">
          <g
             style="fill:#ffffff;fill-opacity:1"
             id="g66">
            <path
               inkscape:connector-curvature="0"
               id="path76"
               style="fill:#ffffff;fill-opacity:1;stroke:none"
               d="m 102.65,305.341 c -0.177,-3.708 0.706,-18.188 0.706,-18.188 l 0,0 c -16.775,3.179 -12.008,-5.827 -12.008,-5.827 l 0,0 c 0,0 6.887,-15.363 27.194,-21.72 l 0,0 c 20.307,-6.357 37.87,-3.149 37.87,-3.149 l 0,0 -5.026,2.62 c -43.085,0.529 -53.196,17.906 -55.093,21.013 l 0,0 c -4.06,6.646 1.723,3.922 6.533,3.355 l 0,0 c 4.553,-0.536 4.238,3.884 4.238,3.884 l 0,0 c 0,0 -1.059,11.655 -1.059,19.414 l 0,0 c 0,7.759 8.3,-1.402 8.3,-1.402 l 0,0 c 13.166,-14.776 40.118,-32.763 42.202,-33.904 l 0,0 c 2.086,-1.141 11.158,1.767 11.158,1.767 l 0,0 C 153.043,270.159 115.66,308.59 115.66,308.59 l 0,0 c -3.613,4.044 -6.234,5.502 -8.132,5.502 l 0,0 c -3.928,-10e-4 -4.76,-6.251 -4.878,-8.751" />
          </g>
        </g>
      </g>
    </g>
    <g
       inkscape:export-ydpi="90"
       inkscape:export-xdpi="90"
       style="fill:#ffffff;fill-opacity:1"
       id="g78"
       transform="matrix(1.2499999,0,0,-1.2499999,63.816966,660.19136)">
      <g
         style="fill:#ffffff;fill-opacity:1"
         clip-path="url(#clipPath82)"
         id="g80">
        <g
           style="fill:#ffffff;fill-opacity:1"
           id="g86">
          <g
             style="fill:#ffffff;fill-opacity:1"
             id="g88">
            <path
               inkscape:connector-curvature="0"
               id="path98"
               style="fill:#ffffff;fill-opacity:1;stroke:none"
               d="m 298.768,307.444 c -2.159,-5.368 -12.226,-34.114 -39.807,-52.94 l 0,0 c -25.87,-17.658 -55.908,-13.942 -55.908,-13.942 l 0,0 c -42.408,5.664 -64.047,33.403 -64.047,33.403 l 0,0 c 22.366,-13.652 43.279,2.76 43.279,2.76 l 0,0 -7.116,0.435 c -17.863,-11.182 -34.855,0.436 -34.855,0.436 l 0,0 c -3.196,2.469 -4.981,1.742 -4.981,1.742 l 0,0 c -4.689,-1.306 0.913,-7.696 0.913,-7.696 l 0,0 c 18.009,-21.349 44.661,-29.654 44.661,-29.654 l 0,0 c 39.63,-15.671 75.643,6.027 75.643,6.027 l 0,0 c 43.096,27.172 46.713,66 46.713,66 l 0,0 c 0.009,0.049 0.003,0.071 -0.016,0.071 l 0,0 c -0.322,0 -4.479,-6.642 -4.479,-6.642" />
          </g>
        </g>
      </g>
    </g>
    <g
       inkscape:export-ydpi="90"
       inkscape:export-xdpi="90"
       style="fill:#ffffff;fill-opacity:1"
       id="g100"
       transform="matrix(1.2499999,0,0,-1.2499999,63.816966,660.19136)">
      <g
         style="fill:#ffffff;fill-opacity:1"
         clip-path="url(#clipPath104)"
         id="g102">
        <g
           style="fill:#ffffff;fill-opacity:1"
           id="g108">
          <g
             style="fill:#ffffff;fill-opacity:1"
             id="g110">
            <path
               inkscape:connector-curvature="0"
               id="path120"
               style="fill:#ffffff;fill-opacity:1;stroke:none"
               d="m 131.332,341.59 c -3.918,-12.054 21.246,-36.315 21.246,-36.315 l 0,0 c -15.369,8.74 -22,7.497 -22,7.497 l 0,0 c -11.301,-1.543 5.876,-18.496 5.876,-18.496 l 0,0 c 23.508,-23.206 54.398,-17.782 54.398,-17.782 l 0,0 c -4.37,-3.013 -4.069,-7.383 -4.069,-7.383 l 0,0 c 1.358,-9.128 15.974,-4.37 15.974,-4.37 l 0,0 c 33.602,8.589 61.479,35.253 61.479,35.253 l 0,0 c -1.361,2.196 -4.641,0 -4.641,0 l 0,0 c -15.037,-14.171 -43.277,-28.02 -54.277,-31.034 l 0,0 c -11,-3.014 -13.261,-1.808 -14.198,-0.206 l 0,0 c -0.937,1.603 -0.621,5.002 4.688,6.433 l 0,0 c 5.309,1.431 6.647,3.267 5.894,4.924 l 0,0 c -0.755,1.657 -6.22,0.151 -6.22,0.151 l 0,0 c -17.22,-2.863 -32.506,2.561 -32.506,2.561 l 0,0 c -22.898,6.803 -31.494,23.49 -31.494,23.49 l 0,0 c 0,0 -2.704,3.591 3.851,2.579 l 0,0 c 6.556,-1.013 17.848,-8.74 21.916,-7.987 l 0,0 c 4.069,0.753 0,6.179 -6.931,13.165 l 0,0 c -6.932,6.987 -16.58,20.166 -15.822,24.658 l 0,0 c 0.758,4.491 3.203,5.908 30.933,6.479 l 0,0 c 27.729,0.57 76.166,-7.082 76.166,-7.082 l 0,0 1.445,3.767 c -2.51,0.904 -56.106,5.726 -56.106,5.726 l 0,0 c 0,0 -12.921,1.507 -26.332,1.507 l 0,0 c -13.411,0 -27.312,-1.507 -29.27,-7.535" />
          </g>
        </g>
      </g>
    </g>
    <g
       inkscape:export-ydpi="90"
       inkscape:export-xdpi="90"
       style="fill:#ffffff;fill-opacity:1"
       id="g122"
       transform="matrix(1.2499999,0,0,-1.2499999,63.816966,660.19136)">
      <g
         style="fill:#ffffff;fill-opacity:1"
         clip-path="url(#clipPath126)"
         id="g124">
        <g
           style="fill:#ffffff;fill-opacity:1"
           id="g130">
          <g
             style="fill:#ffffff;fill-opacity:1"
             id="g132">
            <path
               inkscape:connector-curvature="0"
               id="path142"
               style="fill:#ffffff;fill-opacity:1;stroke:none"
               d="m 302.351,351.448 c 0.275,0 18.319,-2.145 18.319,-2.145 l 0,0 c -0.275,-1.431 -11.773,-14.028 -11.773,-14.028 l 0,0 0,-5.115 c 9.792,9.297 15.953,18.868 15.953,18.868 l 0,0 c 1.596,3.74 -2.75,3.906 -2.75,3.906 l 0,0 -23.278,2.614 c -0.005,0 -0.01,10e-4 -0.015,10e-4 l 0,0 c -0.475,-10e-4 3.544,-4.101 3.544,-4.101" />
          </g>
        </g>
      </g>
    </g>
    <g
       inkscape:export-ydpi="90"
       inkscape:export-xdpi="90"
       style="fill:#ffffff;fill-opacity:1"
       id="g144"
       transform="matrix(1.2499999,0,0,-1.2499999,63.816966,660.19136)">
      <g
         style="fill:#ffffff;fill-opacity:1"
         clip-path="url(#clipPath148)"
         id="g146">
        <g
           style="fill:#ffffff;fill-opacity:1"
           id="g152">
          <g
             style="fill:#ffffff;fill-opacity:1"
             id="g154">
            <path
               inkscape:connector-curvature="0"
               id="path164"
               style="fill:#ffffff;fill-opacity:1;stroke:none"
               d="m 239.692,331.465 c 0,-19.23 15.589,-34.82 34.819,-34.82 l 0,0 c 19.23,0 34.819,15.59 34.819,34.82 l 0,0 c 0,19.23 -15.589,34.819 -34.819,34.819 l 0,0 c -19.23,0 -34.819,-15.589 -34.819,-34.819 m 3.348,0 c 0,17.38 14.09,31.47 31.471,31.47 l 0,0 c 17.381,0 31.47,-14.09 31.47,-31.47 l 0,0 c 0,-17.38 -14.089,-31.471 -31.47,-31.471 l 0,0 c -17.381,0 -31.471,14.091 -31.471,31.471" />
          </g>
        </g>
      </g>
    </g>
    <g
       inkscape:export-ydpi="90"
       inkscape:export-xdpi="90"
       style="fill:#ffffff;fill-opacity:1"
       id="g166"
       transform="matrix(1.2499999,0,0,-1.2499999,63.816966,660.19136)">
      <g
         style="fill:#ffffff;fill-opacity:1"
         clip-path="url(#clipPath170)"
         id="g168">
        <g
           style="fill:#ffffff;fill-opacity:1"
           id="g174">
          <g
             style="fill:#ffffff;fill-opacity:1"
             id="g176">
            <path
               inkscape:connector-curvature="0"
               id="path186"
               style="fill:#ffffff;fill-opacity:1;stroke:none"
               d="m 282.871,329.367 c 0,-3.534 2.865,-6.398 6.399,-6.398 l 0,0 c 3.534,0 6.399,2.864 6.399,6.398 l 0,0 c 0,3.534 -2.865,6.399 -6.399,6.399 l 0,0 c -3.534,0 -6.399,-2.865 -6.399,-6.399 m 3.671,0 c 0,1.507 1.221,2.728 2.728,2.728 l 0,0 c 1.506,0 2.728,-1.221 2.728,-2.728 l 0,0 c 0,-1.507 -1.222,-2.728 -2.728,-2.728 l 0,0 c -1.507,0 -2.728,1.221 -2.728,2.728" />
          </g>
        </g>
      </g>
    </g>
  </g>
</svg>
